<svg width="960" height="5166" viewBox="0 0 960 5166" fill="none" xmlns="http://www.w3.org/2000/svg">
<path d="M0 0H960V5166H0V0Z" fill="white"/>
<path d="M523.211 0H0V5166H960V5150.63H249.698C258.989 5129.23 265.65 5106.27 268.563 5082.44C276.759 5015.61 255.285 4941.59 225.287 4881.96C195.288 4822.33 156.93 4776.88 114.637 4749.2C79.1815 4726.19 41.0762 4715.83 0.321316 4708.17L0.321346 4290.23C61.6296 4293.62 128.248 4275.18 181.86 4241.08C270.506 4184.7 324.1 4085.74 367.026 3999.86C409.952 3914.22 442.464 3841.9 437.892 3773.86C434.187 3718.54 405.968 3666.03 377.286 3612.66C370.571 3600.16 363.831 3587.62 357.374 3574.98C346.493 3553.69 336.416 3532.17 326.04 3510.02C303.962 3462.88 280.529 3412.85 245.106 3355.88C193.29 3272.38 115.312 3173.9 25.6502 3156.53C17.308 3154.91 8.86243 3154 0.321302 3153.72L0.321364 2512.85C34 2535.69 69.7102 2557.97 108.618 2564.55C167.639 2574.52 234.017 2548.34 261.257 2493.86C278.113 2460.34 280.035 2416.17 282.118 2368.32C283.421 2338.39 284.786 2307.02 289.906 2275.92C294.657 2247.06 302.641 2218.45 310.338 2190.87C324.199 2141.19 337.131 2094.85 328.575 2056.38C315.111 1996.73 249.829 1956.13 187.364 1925.69C125.884 1895.65 66.9958 1875.31 0.321318 1860.58L0.321322 1578.01C3.42592 1578.37 6.55545 1578.53 9.71724 1578.46C36.4178 1577.84 65.4407 1560.83 97.1577 1542.24C125.869 1525.41 156.788 1507.28 190.191 1498.86C223.941 1490.37 260.165 1491.73 294.314 1493.01C331.504 1494.4 366.232 1495.7 392.622 1484.09C443.243 1461.83 463.172 1392.29 461.67 1327.39C460.371 1262.5 437.439 1202.24 406.683 1151.14C385.452 1116.01 360.394 1085.34 332.145 1050.75C319.463 1035.23 306.137 1018.91 292.226 1001.05C287.399 994.859 282.502 988.476 277.512 981.973L277.483 981.936L277.472 981.922C236.057 927.95 188.268 865.671 121.541 832.271C84.1992 813.682 40.9778 804.138 0.321337 805.667L0.321389 602.125C70.5638 617.826 151.078 605.6 201.684 547.31C228.724 516.012 247.204 471.477 266.478 425.026C284.187 382.347 302.567 338.051 328.874 300.921C355.619 263.028 390.59 232.51 423.481 203.807C458.113 173.585 490.44 145.374 508.427 112.688C527.455 78.1128 530.371 38.5564 523.211 0Z" fill="#FFC04C"/>
<path d="M960 4753.09V3785.6C955.313 3788.48 950.587 3791.39 945.818 3794.33C915.288 3813.15 883.007 3833.05 847.997 3850.49C818.999 3864.94 788.149 3877.7 757.918 3890.21L757.914 3890.21C679.356 3922.71 604.971 3953.48 578.088 4007.61C554.815 4054.84 567.688 4119.84 582.52 4194.73C591.233 4238.73 600.622 4286.13 603.753 4335.35C606.528 4380.56 604.077 4427.3 601.73 4472.05L601.729 4472.06C597.157 4559.23 592.979 4638.9 628.573 4685.21C675.515 4746.6 792.582 4749.15 902.607 4751.54L902.706 4751.54L902.793 4751.54L902.885 4751.54L903.109 4751.55C918.512 4751.88 933.774 4752.22 948.684 4752.71C952.479 4752.83 956.251 4752.95 960 4753.09Z" fill="#FFC04C"/>
<path d="M960 3421.25V2560.55C955.505 2562.2 951.057 2563.89 946.658 2565.63C870.062 2595.92 808.404 2639.37 748.149 2681.84L744.655 2684.3L742.951 2685.5L742.948 2685.5C682.309 2728.13 622.704 2770.03 580.52 2828.1C537.939 2886.72 512.819 2962.23 501.376 3044C489.933 3125.76 492.024 3213.99 533.85 3265.51C563.744 3302.13 614.04 3319.86 669.569 3339.43L669.576 3339.43C691.679 3347.23 714.611 3355.31 737.415 3364.99C754.674 3372.39 771.866 3380.69 788.808 3388.87L788.814 3388.88C850.529 3418.68 908.929 3446.88 955.154 3423.87C956.785 3423.06 958.4 3422.19 960 3421.25Z" fill="#FFC04C"/>
<path d="M960 2386.01V1430.89C903.474 1431.38 838.651 1473.33 775.449 1514.23L775.437 1514.24C761.421 1523.31 747.485 1532.33 733.736 1540.84C715.398 1552.18 697.408 1562.61 680.18 1572.6C621.028 1606.91 570.855 1636 546.385 1678.88C518.537 1727.67 524.136 1794.24 529.474 1857.72C530.193 1866.27 530.907 1874.76 531.534 1883.14C534.761 1924.6 535.881 1963.51 537.112 2006.29C537.976 2036.33 538.896 2068.28 540.638 2104.37C544.862 2191.88 553.789 2304.02 612.686 2368.57C671.658 2433.32 780.675 2450.7 874.858 2424C905.038 2415.45 933.673 2402.38 960 2386.01Z" fill="#FFC04C"/>
<path d="M960 1079.21C912.182 1102.49 856.014 1111.43 804.169 1101.61C727.423 1087.21 660.23 1031.32 619.895 962.073C579.398 892.948 565.81 810.204 566.996 728.258C568.073 646.161 584.197 564.894 623.074 492.965C662.06 421.187 723.798 358.747 798.812 306.307C849.079 271.171 905.332 240.545 960 227.814V1079.21Z" fill="#FFC04C"/>
</svg>
