<svg width="960" height="2502" viewBox="0 0 960 2502" fill="none" xmlns="http://www.w3.org/2000/svg">
<path d="M0 0H960V2502H0V0Z" fill="white"/>
<path d="M118.175 53.6134C122.872 58.1894 120.79 69.6292 119.918 80.1928C118.998 90.7564 119.192 100.395 114.544 105.409C109.847 110.472 100.261 110.861 92.6108 108.914C84.9608 106.967 79.2476 102.634 72.6628 97.6204C66.0296 92.6063 58.4764 86.862 57.3144 79.9007C56.104 72.9882 61.2362 64.8099 67.8695 60.2826C74.4542 55.7553 82.5884 54.7817 92.3203 53.1266C102.101 51.4715 113.479 49.0862 118.175 53.6134Z" fill="#FFC04C"/>
<path d="M876.703 495.551C884.599 501.72 894.568 507.543 895.802 514.601C896.986 521.609 889.485 529.9 881.588 537.598C873.692 545.347 865.401 552.552 855.481 554.23C845.512 555.908 833.915 552.108 826.512 544.36C819.109 536.611 815.902 525.014 817.333 514.749C818.715 504.533 824.686 495.699 832.089 489.53C839.492 483.361 848.325 479.857 855.629 481.338C862.983 482.868 868.806 489.382 876.703 495.551Z" fill="#FFC04C"/>
<path d="M74.2358 118.163C79.0557 121.41 84.3752 124.847 86.8011 130.415C89.2615 135.981 88.8947 143.641 84.5553 146.855C80.2136 150.036 71.9658 148.733 65.1089 147.944C58.2521 147.155 52.8551 146.874 49.2954 144.248C45.7725 141.652 44.0894 136.742 43.4564 131.495C42.8233 126.248 43.2107 120.73 46.2875 116.863C49.3643 112.997 55.0664 110.851 60.096 111.322C65.1231 111.76 69.4481 114.881 74.2358 118.163Z" fill="#FFC04C"/>
<path d="M912.865 437.694C919.646 441.763 927.036 447.937 928.58 455.654C930.123 463.372 925.82 472.632 919.038 480.443C912.257 488.207 902.996 494.568 894.343 493.96C885.691 493.352 877.646 485.775 871.706 478.011C865.813 470.2 861.978 462.156 863.241 455.374C864.504 448.592 870.864 443.073 876.804 439.051C882.697 434.982 888.216 432.363 894.063 432.035C899.909 431.708 906.083 433.672 912.865 437.694Z" fill="#FFC04C"/>
<path d="M850.089 439.982C852.463 443.236 853.558 446.993 853.897 451.067C854.236 455.142 853.819 459.586 851.419 461.861C849.046 464.163 844.665 464.322 840.961 463.66C837.232 463.025 834.154 461.544 831.65 459.242C829.12 456.967 827.138 453.845 825.626 449.163C824.087 444.48 822.965 438.263 825.495 434.982C828.025 431.728 834.154 431.437 839.083 432.68C843.986 433.924 847.69 436.702 850.089 439.982Z" fill="#FFC04C"/>
<path d="M232.119 2020.71C238.098 2031.18 240.518 2040.57 243.009 2052.39C245.429 2064.2 247.778 2078.51 241.871 2085.7C235.963 2092.96 221.656 2093.17 207.492 2093.1C193.328 2093.03 179.234 2092.6 167.348 2085.41C155.532 2078.15 145.852 2064.06 148.415 2052.46C150.906 2040.93 165.568 2031.82 177.455 2021.42C189.27 2010.96 198.381 1999.15 207.563 1999C216.816 1998.79 226.212 2010.32 232.119 2020.71Z" fill="#FFC04C"/>
<path d="M54.1608 670.248C47.0019 675.151 40.8408 683.308 42.1858 690.163C43.5309 697.018 52.2951 702.572 59.4541 706.173C66.613 709.774 72.1666 711.51 78.0673 711.9C84.0114 712.334 90.346 711.423 94.5546 707.822C98.7632 704.177 100.802 697.842 102.755 689.555C104.664 681.268 106.53 671.072 102.321 666.126C98.1124 661.223 87.9163 661.614 78.7181 662.655C69.4766 663.653 61.3197 665.302 54.1608 670.248Z" fill="#FFC04C"/>
<path d="M140.911 1987.09C145.033 1994.55 141.843 2005.89 141.794 2017.17C141.745 2028.46 144.787 2039.64 140.715 2043.82C136.593 2047.99 125.405 2045.14 115.493 2043.82C105.63 2042.44 97.0433 2042.69 92.9706 2038.52C88.8488 2034.35 89.2413 2025.76 87.7693 2015.7C86.2481 2005.64 82.8624 1994.11 86.9351 1986.65C91.0569 1979.19 102.588 1975.9 114.07 1976C125.503 1976.1 136.838 1979.68 140.911 1987.09Z" fill="#FFC04C"/>
<path d="M850.363 1177.54C858.053 1188.11 861.001 1200.55 862.346 1214.26C863.756 1228.04 863.436 1243.1 855.746 1248.48C848.056 1253.8 832.996 1249.38 819.923 1247.33C806.85 1245.28 795.827 1245.66 790.508 1240.28C785.125 1234.96 785.51 1223.94 786.856 1214.26C788.201 1204.58 790.573 1196.32 795.892 1185.74C801.275 1175.17 809.541 1162.29 819.923 1160.3C830.24 1158.25 842.673 1166.97 850.363 1177.54Z" fill="#FFC04C"/>
<path d="M211.482 1453.61C220.416 1459.92 226.996 1471.16 226.996 1482.39C226.996 1493.63 220.416 1504.86 211.482 1509.3C202.601 1513.74 191.366 1511.44 180.453 1511.12C169.539 1510.8 158.946 1512.51 152.366 1508.02C145.732 1503.58 143.164 1492.98 143.003 1482.28C142.896 1471.53 145.25 1460.72 151.831 1454.36C158.465 1448.04 169.271 1446.23 180.346 1446.01C191.366 1445.85 202.601 1447.3 211.482 1453.61Z" fill="#FFC04C"/>
<path d="M168.175 1548.22C177.12 1558.96 184.714 1569.13 187.159 1581.74C189.605 1594.29 186.773 1609.35 177.892 1615.85C169.011 1622.42 153.953 1620.49 141.468 1617.98C128.919 1615.47 118.944 1612.38 113.602 1605.88C108.197 1599.31 107.489 1589.34 108.261 1580.07C109.033 1570.8 111.221 1562.31 116.627 1551.56C121.968 1540.88 130.463 1527.88 139.795 1527.04C149.126 1526.21 159.294 1537.53 168.175 1548.22Z" fill="#FFC04C"/>
<path d="M128.902 738.249C136.578 743.526 142.094 753.361 142.526 763.627C143.006 773.941 138.401 784.687 130.725 789.724C123.049 794.761 112.304 794.089 101.846 793.801C91.3877 793.513 81.2175 793.609 77.1879 788.572C73.2062 783.535 75.3649 773.365 74.8372 762.619C74.2616 751.874 70.9515 740.6 74.9332 735.323C78.9628 730.046 90.2363 730.766 100.838 731.533C111.392 732.253 121.226 732.972 128.902 738.249Z" fill="#FFC04C"/>
<path d="M110.985 1453.36C116.177 1463.5 118.742 1471.32 121.552 1481.88C124.362 1492.45 127.355 1505.83 122.163 1514.62C116.971 1523.36 103.594 1527.51 90.6442 1527.02C77.6947 1526.6 65.1727 1521.65 60.1029 1512.85C54.9719 1504.12 57.3541 1491.59 59.1255 1480.84C60.8969 1470.15 62.1797 1461.24 67.2495 1451.04C72.3805 1440.84 81.2985 1429.41 89.6668 1430.02C97.9741 1430.57 105.793 1443.16 110.985 1453.36Z" fill="#FFC04C"/>
<path d="M895.586 1097.17C902.91 1103.31 908.304 1112.52 906.988 1120.37C905.629 1128.22 897.516 1134.75 890.236 1138.39C882.912 1142.07 876.378 1142.86 870.106 1142.64C863.791 1142.42 857.695 1141.24 852.783 1137.56C847.915 1133.92 844.188 1127.82 842.697 1120.23C841.206 1112.65 841.907 1103.53 846.775 1097.39C851.687 1091.25 860.809 1088.09 869.931 1088C879.097 1087.96 888.306 1091.03 895.586 1097.17Z" fill="#FFC04C"/>
<path d="M891.877 1815.75C897.705 1824.15 896.355 1837.16 893.901 1847.71C891.448 1858.26 887.89 1866.36 882.062 1874.15C876.235 1881.88 868.137 1889.36 860.47 1888.93C852.802 1888.5 845.563 1880.16 835.38 1872.37C825.136 1864.64 811.886 1857.4 809.432 1847.71C806.979 1838.02 815.321 1825.87 825.504 1817.47C835.748 1809.12 847.894 1804.46 860.47 1804.03C873.045 1803.6 886.05 1807.35 891.877 1815.75Z" fill="#FFC04C"/>
</svg>
