<svg width="960" height="5166" viewBox="0 0 960 5166" fill="none" xmlns="http://www.w3.org/2000/svg">
<rect width="960" height="5166" fill="white"/>
<path fill-rule="evenodd" clip-rule="evenodd" d="M395.989 349.678C392.608 419.984 363.696 497.802 298.933 530.928C265.717 547.918 223.135 553.165 177.515 558.786C134.188 564.124 88.1216 569.8 44.7355 586.195C29.6261 591.872 14.8377 598.856 0.321359 606.639L0.321311 805.667C40.9778 804.138 84.1992 813.682 121.541 832.272C188.268 865.671 236.057 927.95 277.471 981.921L277.472 981.922L277.487 981.942L277.512 981.974C282.502 988.477 287.399 994.859 292.226 1001.06C306.137 1018.91 319.463 1035.23 332.145 1050.75C360.394 1085.34 385.452 1116.01 406.683 1151.14C437.439 1202.24 460.371 1262.5 461.67 1327.39C463.172 1392.29 443.243 1461.83 392.622 1484.09C366.232 1495.7 331.504 1494.4 294.314 1493.01C260.165 1491.73 223.941 1490.37 190.191 1498.86C156.788 1507.28 125.869 1525.41 97.1576 1542.24C65.4405 1560.83 36.4178 1577.84 9.71723 1578.46C6.55544 1578.53 3.42591 1578.37 0.321317 1578.01L0.321342 1860.58C66.996 1875.31 125.885 1895.65 187.364 1925.69C249.829 1956.13 315.112 1996.73 328.575 2056.38C337.131 2094.85 324.2 2141.19 310.338 2190.87C302.641 2218.45 294.657 2247.06 289.907 2275.92C284.786 2307.02 283.421 2338.39 282.118 2368.32C280.035 2416.17 278.113 2460.34 261.257 2493.86C234.017 2548.34 167.639 2574.52 108.618 2564.55C69.7102 2557.97 34 2535.69 0.321302 2512.85L0.321297 3153.72C8.86248 3154 17.3081 3154.91 25.6504 3156.53C115.312 3173.9 193.29 3272.38 245.106 3355.88C280.529 3412.85 303.962 3462.88 326.04 3510.02C336.416 3532.17 346.493 3553.69 357.374 3574.98C363.831 3587.62 370.571 3600.16 377.286 3612.66C405.968 3666.03 434.188 3718.54 437.892 3773.86C442.464 3841.9 409.952 3914.22 367.026 3999.86C324.1 4085.74 270.506 4184.7 181.86 4241.08C128.248 4275.18 61.6295 4293.62 0.321284 4290.23L0.321339 4506.47C22.5341 4513.24 43.8654 4522.3 64.3153 4535.57C106.608 4563.25 144.967 4608.7 174.965 4668.33C204.963 4727.96 226.438 4801.99 218.241 4868.81C210.045 4935.87 172.178 4995.94 129.558 5034.19C105.876 5055.32 80.7275 5069.71 54.3359 5084.82L54.3249 5084.82C36.8469 5094.82 18.8238 5105.14 0.321228 5117.93L0.321263 5134H0V0H0.321322L0.321336 80.2702C27.632 84.2444 52.9312 86.8519 77.3589 89.3694L77.3626 89.3699C108.238 92.5519 137.721 95.5905 168.113 101.064C228.139 112.001 291.525 132.503 334.36 174.289C377.196 216.075 399.303 279.234 395.989 349.678ZM960 227.814C905.332 240.545 849.079 271.171 798.812 306.308C723.798 358.747 662.06 421.187 623.074 492.965C584.197 564.894 568.073 646.161 566.996 728.258C565.81 810.204 579.398 892.948 619.895 962.073C660.23 1031.32 727.423 1087.21 804.169 1101.61C856.014 1111.43 912.182 1102.49 960 1079.21V227.814ZM960 1430.89C903.474 1431.38 838.651 1473.33 775.449 1514.23C761.429 1523.31 747.489 1532.33 733.736 1540.84C715.401 1552.18 697.414 1562.61 680.189 1572.6L680.18 1572.6L680.179 1572.6C621.027 1606.91 570.855 1636 546.385 1678.88C518.537 1727.67 524.136 1794.24 529.474 1857.72C530.193 1866.27 530.907 1874.76 531.534 1883.14C534.761 1924.6 535.881 1963.51 537.112 2006.29C537.976 2036.33 538.896 2068.28 540.638 2104.37C544.862 2191.88 553.788 2304.02 612.686 2368.57C671.658 2433.33 780.675 2450.7 874.858 2424C905.038 2415.45 933.673 2402.38 960 2386.01V1430.89ZM960 2560.55C955.505 2562.2 951.057 2563.89 946.658 2565.63C870.063 2595.91 808.407 2639.37 748.153 2681.84L748.149 2681.84L744.655 2684.3L742.951 2685.5L742.948 2685.5C682.309 2728.13 622.704 2770.03 580.52 2828.1C537.939 2886.72 512.819 2962.23 501.376 3044C489.933 3125.77 492.024 3214 533.85 3265.51C563.744 3302.13 614.04 3319.86 669.569 3339.43L669.576 3339.43L669.587 3339.44C691.687 3347.23 714.615 3355.31 737.415 3364.99C754.674 3372.39 771.866 3380.69 788.808 3388.87L788.814 3388.88C850.529 3418.68 908.929 3446.88 955.154 3423.87C956.785 3423.06 958.4 3422.19 960 3421.25V2560.55ZM960 3785.6C955.313 3788.48 950.587 3791.39 945.818 3794.33C915.288 3813.15 883.008 3833.05 847.997 3850.49C818.999 3864.94 788.15 3877.7 757.919 3890.21L757.914 3890.21C679.356 3922.71 604.971 3953.48 578.088 4007.61C554.815 4054.84 567.689 4119.84 582.52 4194.73C591.233 4238.73 600.622 4286.13 603.754 4335.35C606.528 4380.57 604.077 4427.3 601.73 4472.06C597.157 4559.23 592.979 4638.9 628.573 4685.21C675.515 4746.6 792.582 4749.15 902.607 4751.54L902.706 4751.54L902.793 4751.54L902.885 4751.54C918.364 4751.88 933.702 4752.21 948.684 4752.71C950.771 4752.77 952.85 4752.84 954.923 4752.91C956.62 4752.97 958.312 4753.03 960 4753.09V3785.6Z" fill="#FFC04C"/>
</svg>
