<svg width="40" height="31" viewBox="0 0 40 31" fill="none" xmlns="http://www.w3.org/2000/svg">
<path d="M36.8421 1.05263C38.0032 1.05263 38.9474 1.99684 38.9474 3.15789V27.3684C38.9474 28.5295 38.0032 29.4737 36.8421 29.4737H3.15789C1.99684 29.4737 1.05263 28.5295 1.05263 27.3684V3.15789C1.05263 1.99684 1.99684 1.05263 3.15789 1.05263H36.8421ZM36.8421 0H3.15789C1.41368 0 0 1.41368 0 3.15789V27.3684C0 29.1126 1.41368 30.5263 3.15789 30.5263H36.8421C38.5863 30.5263 40 29.1126 40 27.3684V3.15789C40 1.41368 38.5863 0 36.8421 0Z" fill="black"/>
<path d="M36.8421 1.05263C38.0032 1.05263 38.9474 1.99684 38.9474 3.18316C38.9474 3.52632 38.3968 4.10526 38.0116 4.37684L20 17.1253L1.98316 4.37158C1.60316 4.10316 1.05263 3.52526 1.05263 3.15789C1.05263 1.99684 1.99684 1.05263 3.15789 1.05263H36.8421ZM36.8421 0H3.15789C1.41368 0 0 1.41368 0 3.15789V3.18211C0 4.27895 1.38 5.23474 1.38 5.23474L20 18.4147L38.62 5.23579C38.62 5.23579 40 4.27895 40 3.18316V3.15789C40 1.41368 38.5863 0 36.8421 0Z" fill="black"/>
<path d="M3.15789 30C1.70737 30 0.526316 28.819 0.526316 27.3684V3.68423H3.68421V30H3.15789Z" fill="black"/>
<path d="M36.3158 30V3.68423H39.4737V27.3684C39.4737 28.819 38.2926 30 36.8421 30H36.3158Z" fill="black"/>
<path d="M1.68421 4.80423C1.56947 4.71897 1.44526 4.62212 1.30105 4.48844C1.02632 4.23265 0.811579 3.96528 0.681053 3.71897C0.577895 3.52528 0.526316 3.34528 0.526316 3.18107C0.526316 2.14318 1.12526 1.21897 2.04 0.788439L20 13.5021L37.9611 0.789491C38.8758 1.22002 39.4737 2.14212 39.4737 3.15791C39.4737 3.26423 39.4611 3.35054 39.4347 3.44107C39.2621 4.03897 38.5705 4.62739 38.3189 4.80423L20 17.7695L1.68421 4.80423Z" fill="black"/>
<path d="M2.00526 1.40947L19.3916 13.7158L20 14.1463L20.6084 13.7158L37.9947 1.41052C38.579 1.79368 38.9474 2.45157 38.9474 3.18315C38.9474 3.21473 38.9411 3.25263 38.9295 3.29473C38.8105 3.70631 38.2632 4.19999 38.0126 4.37684L20 17.1253L1.95263 4.34947C1.89474 4.30526 1.78632 4.22105 1.66105 4.10421C1.42842 3.88736 1.25053 3.66842 1.14526 3.47157C1.08526 3.35894 1.05263 3.25578 1.05263 3.15789C1.05263 2.44631 1.42105 1.79263 2.00526 1.40947ZM2.10842 0.192627C0.883158 0.626311 0 1.78421 0 3.15789V3.1821C0 3.45578 0.0863158 3.7221 0.21579 3.96526C0.409474 4.33052 0.701053 4.64842 0.943158 4.87473C1.10526 5.02526 1.24526 5.13578 1.32 5.19157C1.35789 5.22 1.37895 5.23473 1.37895 5.23473L17.1114 16.3702C18.8423 17.5953 21.1577 17.5953 22.8886 16.3702L38.62 5.23578C38.62 5.23578 39.6768 4.50315 39.9411 3.58526C39.9779 3.45473 40 3.32 40 3.18315V3.15789C40 1.78421 39.1179 0.627364 37.8926 0.192627L20 12.8568L2.10842 0.192627Z" fill="black"/>
</svg>
