<svg width="40" height="40" viewBox="0 0 40 40" fill="none" xmlns="http://www.w3.org/2000/svg">
<path d="M20 0C31.0458 0 40 9.18023 40 20.5049C40 29.6091 34.21 37.3233 26.2008 40C26.2033 39.9923 26.2067 39.9812 26.2067 39.9812C26.2067 39.9812 24.8567 39.3327 24.885 38.1751C24.9167 36.9012 24.885 33.928 24.885 32.8369C24.885 30.9633 23.7283 29.6356 23.7283 29.6356C23.7283 29.6356 32.7983 29.7398 32.7983 19.818C32.7983 15.9896 30.8467 13.998 30.8467 13.998C30.8467 13.998 31.8717 9.91072 30.4917 8.17805C28.945 8.00718 26.175 9.69371 24.9917 10.4823C24.9917 10.4823 23.1167 9.69456 19.9992 9.69456C16.8808 9.69456 15.0067 10.4823 15.0067 10.4823C13.8242 9.69456 11.0533 8.00718 9.50667 8.17805C8.12667 9.91157 9.15167 13.998 9.15167 13.998C9.15167 13.998 7.2 15.9904 7.2 19.818C7.2 29.7398 16.27 29.6356 16.27 29.6356C16.27 29.6356 15.3558 30.6942 15.1567 32.2508C14.5233 32.4713 13.5925 32.743 12.84 32.743C10.8717 32.743 9.37417 30.7813 8.82583 29.874C8.285 28.9786 7.17583 28.2276 6.14167 28.2276C5.46083 28.2276 5.12833 28.577 5.12833 28.976C5.12833 29.375 6.08333 29.6536 6.71333 30.3934C8.04167 31.9535 8.0175 35.4624 12.7508 35.4624C13.265 35.4624 14.3142 35.3326 15.1033 35.2241C15.0983 36.3288 15.0975 37.4941 15.1142 38.1751C15.1425 39.3327 13.7925 39.9812 13.7925 39.9812C13.7925 39.9812 13.7958 39.9923 13.7983 40C5.79 37.3233 0 29.6091 0 20.5049C0 9.18023 8.95417 0 20 0Z" fill="black"/>
</svg>
