<svg width="571" height="493" viewBox="0 0 571 493" fill="none" xmlns="http://www.w3.org/2000/svg">
<path d="M466.417 16.3738C528.017 44.5738 573.317 115.574 570.217 182.574C567.117 249.574 515.617 312.674 470.117 367.674C424.617 422.674 385.217 469.674 336.117 485.674C286.917 501.674 228.117 486.574 166.817 468.474C105.617 450.474 41.9174 429.274 15.7174 385.674C-10.4826 342.074 0.71744 275.974 15.8174 213.974C30.9174 151.974 49.8174 94.1738 89.3174 62.1738C128.917 30.0738 189.117 23.6738 258.117 13.1738C327.117 2.77384 404.917 -11.8262 466.417 16.3738Z" fill="#FFC04C"/>
<path d="M113.734 186.848L34.1836 236.247V256.662L113.734 306.239V283.864L53.4598 246.606L113.734 209.29V186.852V186.848Z" fill="#050041"/>
<path d="M441.633 186.848V209.286L501.907 246.602L441.633 283.86V306.235L521.184 256.658V236.243L441.633 186.844V186.848Z" fill="#050041"/>
<path d="M415.692 163.218L371.721 328.432H392.189L435.982 163.218H415.692Z" fill="#050041"/>
<path d="M211.312 163.633H172.818L125.516 309.026H157.943L166.751 276.591H213.517L221.905 309.026H256.475L211.316 163.633H211.312ZM174.126 251.416L191.5 192.26L206.91 251.416H174.126Z" fill="#050041"/>
<path d="M308.179 284.45V247.013H354.945V222.673H308.179V187.857H357.623V163.633H274.858V309.031H359.944V284.45H308.179Z" fill="#050041"/>
</svg>
