<svg width="900" height="600" viewBox="0 0 900 600" fill="none" xmlns="http://www.w3.org/2000/svg">
<path d="M631.234 70.1558C692.834 98.3558 738.134 169.356 735.034 236.356C731.934 303.356 680.434 366.456 634.934 421.456C589.434 476.456 550.034 523.456 500.934 539.456C451.734 555.456 392.934 540.356 331.634 522.256C270.434 504.256 206.734 483.056 180.534 439.456C154.334 395.856 165.534 329.756 180.634 267.756C195.734 205.756 214.634 147.956 254.134 115.956C293.734 83.8558 353.934 77.4558 422.934 66.9558C491.934 56.5558 569.734 41.9558 631.234 70.1558Z" fill="#FFC04C"/>
<path d="M278.551 240.63L199 290.029V310.444L278.551 360.021V337.646L218.276 300.388L278.551 263.072V240.634V240.63Z" fill="#050041"/>
<path d="M606.449 240.63V263.068L666.724 300.384L606.449 337.642V360.017L686 310.44V290.025L606.449 240.626V240.63Z" fill="#050041"/>
<path d="M580.509 217L536.537 382.214H557.005L600.798 217H580.509Z" fill="#050041"/>
<path d="M376.128 217.415H337.634L290.332 362.808H322.759L331.567 330.373H378.333L386.721 362.808H421.292L376.132 217.415H376.128ZM338.942 305.198L356.316 246.042L371.726 305.198H338.942Z" fill="#050041"/>
<path d="M472.995 338.231V300.795H519.761V276.455H472.995V241.639H522.44V217.415H439.675V362.813H524.761V338.231H472.995Z" fill="#050041"/>
</svg>
