<svg width="960" height="540" viewBox="0 0 960 540" fill="none" xmlns="http://www.w3.org/2000/svg">
<g clip-path="url(#clip0_158_510)">
<path d="M960 0H0V540H960V0Z" fill="white"/>
<path d="M0 473.887L80 465.664C160 457.225 320 440.779 480 447.487C640 454.412 800 484.706 880 499.853L960 515V0H880C800 0 640 0 480 0C320 0 160 0 80 0H0V473.887Z" fill="#5664AB"/>
<path d="M0 346.476L80 327.633C160 308.587 320 270.9 480 277.586C640 284.273 800 335.738 880 361.268L960 387V0H880C800 0 640 0 480 0C320 0 160 0 80 0H0V346.476Z" fill="#3C4680"/>
<path d="M0 201L80 200.635C160 200.452 320 199.721 480 186.382C640 173.043 800 146.73 880 133.756L960 120.6V0H880C800 0 640 0 480 0C320 0 160 0 80 0H0V201Z" fill="#222B58"/>
</g>
<defs>
<clipPath id="clip0_158_510">
<rect width="960" height="540" fill="white"/>
</clipPath>
</defs>
</svg>
