<svg width="430" height="932" viewBox="0 0 430 932" fill="none" xmlns="http://www.w3.org/2000/svg">
<g clip-path="url(#clip0_165_523)">
<path d="M430 0H0V932H430V0Z" fill="white"/>
<path d="M0 1054.51L35.8333 1036.22C71.6667 1017.44 143.333 980.841 215 995.768C286.667 1011.18 358.333 1078.59 394.167 1112.29L430 1146V0H394.167C358.333 0 286.667 0 215 0C143.333 0 71.6667 0 35.8333 0H0V1054.51Z" fill="#5664AB"/>
<path d="M0 737.717L35.8333 697.596C71.6667 657.043 143.333 576.8 215 591.037C286.667 605.273 358.333 714.852 394.167 769.21L430 824V0H394.167C358.333 0 286.667 0 215 0C143.333 0 71.6667 0 35.8333 0H0V737.717Z" fill="#3C4680"/>
<path d="M0 390L35.8333 389.291C71.6667 388.936 143.333 387.518 215 361.636C286.667 335.755 358.333 284.7 394.167 259.527L430 234V0H394.167C358.333 0 286.667 0 215 0C143.333 0 71.6667 0 35.8333 0H0V390Z" fill="#222B58"/>
</g>
<defs>
<clipPath id="clip0_165_523">
<rect width="430" height="932" fill="white"/>
</clipPath>
</defs>
</svg>
