<svg width="960" height="540" viewBox="0 0 960 540" fill="none" xmlns="http://www.w3.org/2000/svg">
<g clip-path="url(#clip0_158_510)">
<path d="M960 0H0V540H960V0Z" fill="white"/>
<path d="M0 594.429L80 584.114C160 573.529 320 552.9 480 561.314C640 570 800 608 880 627L960 646V0H880C800 0 640 0 480 0C320 0 160 0 80 0H0V594.429Z" fill="#5664AB"/>
<path d="M0 426.157L80 402.98C160 379.554 320 333.2 480 341.424C640 349.648 800 412.949 880 444.35L960 476V0H880C800 0 640 0 480 0C320 0 160 0 80 0H0V426.157Z" fill="#3C4680"/>
<path d="M0 245L80 244.555C160 244.332 320 243.441 480 227.182C640 210.923 800 178.85 880 163.036L960 147V0H880C800 0 640 0 480 0C320 0 160 0 80 0H0V245Z" fill="#222B58"/>
</g>
<defs>
<clipPath id="clip0_158_510">
<rect width="960" height="540" fill="white"/>
</clipPath>
</defs>
</svg>
