<svg width="900" height="600" viewBox="0 0 900 600" fill="none" xmlns="http://www.w3.org/2000/svg">
<path d="M631.234 70.1559C692.834 98.3559 738.134 169.356 735.034 236.356C731.934 303.356 680.434 366.456 634.934 421.456C589.434 476.456 550.034 523.456 500.934 539.456C451.734 555.456 392.934 540.356 331.634 522.256C270.434 504.256 206.734 483.056 180.534 439.456C154.334 395.856 165.534 329.756 180.634 267.756C195.734 205.756 214.634 147.956 254.134 115.956C293.734 83.8559 353.934 77.4559 422.934 66.9559C491.934 56.5559 569.734 41.9559 631.234 70.1559Z" fill="#FFC04C"/>
<g clip-path="url(#clip0_166_528)">
<path d="M309.145 210.553L248.564 248.172V263.719L309.145 301.475V284.435L263.244 256.061L309.145 227.643V210.556V210.553Z" fill="#050041"/>
<path d="M558.854 210.553V227.64L604.756 256.058L558.854 284.432V301.471L619.436 263.716V248.169L558.854 210.55V210.553Z" fill="#050041"/>
<path d="M539.099 192.558L505.613 318.375H521.2L554.55 192.558H539.099Z" fill="#050041"/>
<path d="M383.454 192.874H354.139L318.117 303.597H342.812L349.519 278.896H385.133L391.521 303.597H417.848L383.457 192.874H383.454ZM355.135 259.724L368.367 214.675L380.102 259.724H355.135Z" fill="#050041"/>
<path d="M457.222 284.881V256.371H492.837V237.835H457.222V211.322H494.877V192.874H431.848V303.6H496.644V284.881H457.222Z" fill="#050041"/>
<path d="M611.533 166H256.467C235.222 166 218 183.227 218 204.477V355.523C218 376.773 235.222 394 256.467 394H611.533C632.778 394 650 376.773 650 355.523V204.477C650 183.227 632.778 166 611.533 166ZM641.171 213.308V294.56C641.171 315.81 623.949 333.037 602.704 333.037H265.296C244.051 333.037 226.829 315.81 226.829 294.56V213.308C226.829 192.058 244.051 174.832 265.296 174.832H602.704C623.949 174.832 641.171 192.058 641.171 213.308Z" fill="#050041"/>
</g>
<defs>
<clipPath id="clip0_166_528">
<rect width="432" height="228" fill="white" transform="translate(218 166)"/>
</clipPath>
</defs>
</svg>
