<svg width="40" height="40" viewBox="0 0 40 40" fill="none" xmlns="http://www.w3.org/2000/svg">
<path d="M40 34.4444C40 37.5133 37.5133 40 34.4444 40H5.55556C2.48778 40 0 37.5133 0 34.4444V5.55556C0 2.48667 2.48778 0 5.55556 0H34.4444C37.5133 0 40 2.48667 40 5.55556V34.4444Z" fill="#0288D1"/>
<path d="M6.66667 14.4444H12.2222V33.3333H6.66667V14.4444ZM9.42778 12.2222H9.39667C7.73889 12.2222 6.66667 10.9867 6.66667 9.44333C6.66667 7.86667 7.77222 6.66667 9.46 6.66667C11.15 6.66667 12.1911 7.86667 12.2222 9.44333C12.2222 10.9856 11.15 12.2222 9.42778 12.2222ZM33.3333 33.3333H27.7778V23.2233C27.7778 20.7811 26.4167 19.1144 24.2311 19.1144C22.5633 19.1144 21.6611 20.2389 21.2233 21.3256C21.0633 21.7144 21.1111 22.79 21.1111 23.3333V33.3333H15.5556V14.4444H21.1111V17.3511C21.9122 16.1111 23.1667 14.4444 26.3756 14.4444C30.3511 14.4444 33.3322 16.9444 33.3322 22.5267L33.3333 33.3333Z" fill="white"/>
</svg>
