<svg width="1367" height="721" viewBox="0 0 1367 721" fill="none" xmlns="http://www.w3.org/2000/svg">
<g clip-path="url(#clip0_121_510)">
<path d="M288.22 140.85L96.6504 259.78V308.93L288.22 428.29V374.42L143.07 284.72L288.22 194.88V140.86V140.85Z" fill="white"/>
<path d="M1077.85 140.85V194.87L1223 284.71L1077.85 374.41V428.28L1269.42 308.92V259.77L1077.85 140.84V140.85Z" fill="white"/>
<path d="M1015.38 83.96L909.49 481.72H958.78L1064.24 83.96H1015.38Z" fill="white"/>
<path d="M523.2 84.96H430.5L316.59 435H394.68L415.89 356.91H528.51L548.71 435H631.96L523.21 84.96H523.2ZM433.65 296.3L475.49 153.88L512.6 296.3H433.65Z" fill="white"/>
<path d="M756.47 375.83V285.7H869.091V227.1H756.47V143.28H875.54V84.96H676.23V435.01H881.13V375.83H756.47Z" fill="white"/>
<path d="M1244.43 0H121.64C54.46 0 0 54.46 0 121.64V565.68V599.16C0 666.34 54.46 720.8 121.64 720.8H1244.43C1311.61 720.8 1366.07 666.34 1366.07 599.16V565.68V121.64C1366.07 54.46 1311.61 0 1244.43 0ZM1338.15 149.56V406.43C1338.15 473.61 1283.69 528.07 1216.51 528.07H149.56C82.38 528.07 27.92 473.61 27.92 406.43V149.56C27.92 82.38 82.38 27.92 149.56 27.92H1216.51C1283.69 27.92 1338.15 82.38 1338.15 149.56Z" fill="white"/>
</g>
<defs>
<clipPath id="clip0_121_510">
<rect width="1366.07" height="720.8" fill="white"/>
</clipPath>
</defs>
</svg>
