<?xml version="1.0" encoding="UTF-8"?><svg xmlns="http://www.w3.org/2000/svg" viewBox="0 0 1366.07 720.8"><defs><style>.d{fill:#050041;}</style></defs><g id="a"/><g id="b"><g id="c"><g><g><path class="d" d="M288.22,140.85l-191.57,118.93v49.15l191.57,119.36v-53.87l-145.15-89.7,145.15-89.84v-54.02Z"/><path class="d" d="M1077.85,140.85v54.02l145.15,89.84-145.15,89.7v53.87l191.57-119.36v-49.15l-191.57-118.93Z"/><path class="d" d="M1015.38,83.96l-105.89,397.76h49.29l105.46-397.76h-48.86Z"/><path class="d" d="M523.2,84.96h-92.7l-113.91,350.04h78.09l21.21-78.09h112.62l20.2,78.09h83.25l-108.75-350.04Zm-89.55,211.34l41.84-142.42,37.11,142.42h-78.95Z"/><path class="d" d="M756.47,375.83v-90.13h112.62v-58.6h-112.62v-83.82h119.07v-58.32h-199.31V435.01h204.9v-59.18h-124.66Z"/></g><path class="d" d="M1244.43,0H121.64C54.46,0,0,54.46,0,121.64v444.04H0v33.48c0,67.18,54.46,121.64,121.64,121.64H1244.43c67.18,0,121.64-54.46,121.64-121.64v-33.48h0V121.64c0-67.18-54.46-121.64-121.64-121.64Zm93.72,149.56V406.43c0,67.18-54.46,121.64-121.64,121.64H149.56c-67.18,0-121.64-54.46-121.64-121.64V149.56c0-67.18,54.46-121.64,121.64-121.64H1216.51c67.18,0,121.64,54.46,121.64,121.64Z"/></g></g></g></svg>