<svg width="40" height="40" viewBox="0 0 40 40" fill="none" xmlns="http://www.w3.org/2000/svg">
<path d="M20 0C14.6957 0 9.60859 2.10714 5.85786 5.85786C2.10714 9.60859 0 14.6957 0 20C0 25.3043 2.10714 30.3914 5.85786 34.1421C9.60859 37.8929 14.6957 40 20 40C25.3043 40 30.3914 37.8929 34.1421 34.1421C37.8929 30.3914 40 25.3043 40 20C40 14.6957 37.8929 9.60859 34.1421 5.85786C30.3914 2.10714 25.3043 0 20 0Z" fill="#29B6F6"/>
<path d="M29.95 11L26.204 30.126C26.204 30.126 26.043 31 24.959 31C24.383 31 24.086 30.726 24.086 30.726L15.972 23.993L12.002 21.992L6.907 20.637C6.907 20.637 6 20.375 6 19.625C6 19 6.933 18.702 6.933 18.702L28.249 10.234C28.249 10.234 28.9 9.999 29.375 10C29.667 10 30 10.125 30 10.5C30 10.75 29.95 11 29.95 11Z" fill="white"/>
<path d="M25.897 14.196C25.728 13.976 25.416 13.936 25.196 14.103L12 22C12 22 14.106 27.892 14.427 28.912C14.749 29.933 15.007 29.957 15.007 29.957L15.971 23.992L25.803 14.896C26.023 14.729 26.064 14.416 25.897 14.196Z" fill="#CFD8DC"/>
</svg>
