<svg width="800" height="800" viewBox="0 0 800 800" fill="none" xmlns="http://www.w3.org/2000/svg">
<path d="M580.026 0H86.6577V800H713.342V133.317L580.026 0Z" fill="#E8E8E8"/>
<path d="M558.345 242H242V558.345H558.345V242Z" fill="#38A3FF"/>
<path d="M400.173 520.185C466.455 520.185 520.188 466.452 520.188 400.17C520.188 333.887 466.455 280.155 400.173 280.155C333.89 280.155 280.157 333.887 280.157 400.17C280.157 466.452 333.89 520.185 400.173 520.185Z" fill="white"/>
<path d="M383.264 456.787C372.327 463.864 363.377 458.996 363.377 445.969V354.379C363.377 341.35 372.327 336.481 383.264 343.556L450.871 387.301C461.811 394.381 461.811 405.964 450.871 413.039L383.264 456.787Z" fill="#38A3FF"/>
<path d="M600.657 66.6596H86.6577V0H580.025L600.657 66.6596Z" fill="#38A3FF"/>
<path d="M273.161 722.643L247.268 631.46H246.49C247.704 646.991 248.311 659.055 248.311 667.657V722.643H218.003V596.045H263.551L289.961 685.93H290.655L316.548 596.045H362.183V722.643H330.749V667.137C330.749 664.251 330.794 661.047 330.879 657.525C330.966 654.005 331.356 645.374 332.048 631.632H331.269L305.725 722.641H273.161V722.643Z" fill="#E8E8E8"/>
<path d="M481.333 636.31C481.333 650.456 477.161 661.38 468.821 669.085C460.477 676.792 448.63 680.644 433.273 680.644H423.661V722.643H389.456V596.045H433.27C449.261 596.045 461.266 599.538 469.293 606.523C477.317 613.507 481.333 623.436 481.333 636.31ZM423.663 652.762H429.896C435.033 652.762 439.118 651.321 442.147 648.432C445.179 645.545 446.696 641.561 446.696 636.482C446.696 627.938 441.959 623.666 432.492 623.666H423.661L423.663 652.762Z" fill="#E8E8E8"/>
<path d="M589.052 698.136H575.113V722.643H541.341V698.136H490.856V673.024L543.504 596.042H575.113V672.591H589.052V698.136ZM541.341 672.591V657.87C541.341 655.1 541.441 651.361 541.644 646.656C541.845 641.951 542.003 639.484 542.119 639.252H541.169C539.206 643.698 536.982 647.854 534.501 651.722L520.475 672.591H541.341Z" fill="#E8E8E8"/>
<path d="M580.025 133.317H713.342L580.025 0V133.317Z" fill="#D1D3D3"/>
</svg>
